<svg width="500" height="500" viewBox="0 0 500 500" fill="none" xmlns="http://www.w3.org/2000/svg">
<mask id="path-1-inside-1_7_9" fill="white">
<path fill-rule="evenodd" clip-rule="evenodd" d="M275.207 15.6987C259.737 6.76709 240.677 6.76709 225.207 15.6987L60 111.081C44.5299 120.013 35 136.519 35 154.382V345.147C35 363.011 44.5299 379.517 60 388.449L225.207 483.831C240.677 492.763 259.737 492.763 275.207 483.831L440.415 388.449C455.885 379.517 465.415 363.011 465.415 345.147V154.382C465.415 136.519 455.885 120.013 440.415 111.081L275.207 15.6987ZM359.433 147.363C361.166 141.741 361.166 137.408 359.433 134.363C358.277 131.318 356.4 128.742 353.8 126.633C351.201 124.525 348.168 123.12 344.702 122.417C341.525 121.48 338.203 121.129 334.737 121.363C331.271 121.597 328.093 122.417 325.205 123.823C319.139 127.102 314.085 132.255 310.041 139.282C306.286 146.075 303.542 152.165 301.809 157.552C301.809 158.021 301.376 159.66 300.509 162.471C299.643 165.282 298.776 168.327 297.909 171.606C297.043 174.885 296.176 177.93 295.31 180.741L294.443 184.606H243.752C245.485 178.048 247.218 171.372 248.951 164.579C250.973 157.786 252.995 151.111 255.017 144.552C256.75 138.696 256.75 133.66 255.017 129.444C253.572 125.228 250.973 122.183 247.218 120.309C243.463 118.435 238.986 117.85 233.787 118.552C228.588 119.021 223.244 121.129 217.756 124.877C212.846 128.156 208.802 132.255 205.625 137.174C202.736 142.093 200.137 147.363 197.826 152.985C195.804 158.372 194.071 163.876 192.627 169.498C191.471 175.12 190.316 180.156 189.161 184.606H161.865C158.11 184.606 154.211 184.957 150.167 185.66C146.123 186.129 142.368 187.066 138.902 188.471C135.436 189.876 132.548 191.867 130.237 194.444C128.215 196.786 127.204 199.831 127.204 203.579C127.204 206.624 127.926 209.201 129.37 211.309C131.103 213.182 133.27 214.705 135.869 215.876C138.758 216.813 141.791 217.516 144.968 217.984C148.434 218.218 151.756 218.336 154.933 218.336H179.196L161.865 278.416H143.235C136.591 278.182 130.381 278.065 124.605 278.065C118.25 278.299 113.773 280.29 111.173 284.038C108.863 287.551 107.707 291.533 107.707 295.984C107.707 300.2 109.296 303.479 112.473 305.821C115.65 307.93 119.55 309.452 124.171 310.389C128.793 311.326 133.559 311.794 138.469 311.794H151.9C151.034 315.074 150.023 318.47 148.867 321.984L146.268 331.821C145.401 335.101 144.101 338.731 142.368 342.713C140.924 346.461 139.769 350.326 138.902 354.308C138.036 358.29 137.891 362.154 138.469 365.902C139.047 369.65 141.069 372.929 144.535 375.74C149.734 379.956 155.511 381.713 161.865 381.01C168.508 380.307 174.43 378.434 179.629 375.389C185.406 372.344 189.449 368.244 191.76 363.091C194.36 357.704 196.382 352.434 197.826 347.281C199.559 341.191 201.148 335.218 202.592 329.362L207.791 311.794H259.349C258.483 315.776 257.472 319.993 256.316 324.443C255.161 328.659 254.006 332.758 252.85 336.74C251.695 340.019 250.539 343.416 249.384 346.929C248.518 350.209 247.795 353.605 247.218 357.118C246.64 360.632 246.929 364.028 248.084 367.308C249.529 370.587 251.695 373.398 254.583 375.74C257.472 378.082 260.793 379.839 264.548 381.01C268.592 382.181 272.925 382.533 277.546 382.064C283.323 381.362 287.8 379.839 290.977 377.497C294.443 375.154 297.187 372.344 299.209 369.064C301.231 365.785 302.675 362.272 303.542 358.524C304.408 354.542 305.419 350.56 306.575 346.578C306.864 345.875 307.441 343.65 308.308 339.902C309.174 336.155 310.041 332.29 310.907 328.308C312.063 324.092 313.074 320.344 313.94 317.065C314.807 313.551 315.529 311.794 316.107 311.794H333.437C340.369 311.794 346.868 311.443 352.934 310.74C358.999 309.803 364.199 308.164 368.531 305.821C372.864 303.479 375.03 299.849 375.03 294.93C375.319 290.245 374.019 286.38 371.131 283.335C368.531 280.29 364.199 278.651 358.133 278.416C351.49 277.948 345.568 277.831 340.369 278.065C335.459 278.299 331.271 278.416 327.805 278.416L340.802 218.336C351.778 218.336 360.588 218.218 367.231 217.984C374.164 217.75 378.207 217.399 379.363 216.93C383.407 216.462 386.439 215.173 388.461 213.065C390.483 210.723 391.783 208.264 392.361 205.687C392.938 202.876 392.794 200.183 391.927 197.606C391.35 195.029 390.483 193.038 389.328 191.633C387.884 190.228 385.428 189.056 381.962 188.12C378.785 187.183 375.175 186.48 371.131 186.011C367.376 185.309 363.621 184.957 359.866 184.957C356.111 184.723 352.934 184.606 350.334 184.606C351.778 178.516 353.223 172.309 354.667 165.985C356.4 159.66 357.989 153.453 359.433 147.363ZM269.314 278.416H216.889L233.787 218.336H285.778L269.314 278.416Z"/>
</mask>
<path fill-rule="evenodd" clip-rule="evenodd" d="M275.207 15.6987C259.737 6.76709 240.677 6.76709 225.207 15.6987L60 111.081C44.5299 120.013 35 136.519 35 154.382V345.147C35 363.011 44.5299 379.517 60 388.449L225.207 483.831C240.677 492.763 259.737 492.763 275.207 483.831L440.415 388.449C455.885 379.517 465.415 363.011 465.415 345.147V154.382C465.415 136.519 455.885 120.013 440.415 111.081L275.207 15.6987ZM359.433 147.363C361.166 141.741 361.166 137.408 359.433 134.363C358.277 131.318 356.4 128.742 353.8 126.633C351.201 124.525 348.168 123.12 344.702 122.417C341.525 121.48 338.203 121.129 334.737 121.363C331.271 121.597 328.093 122.417 325.205 123.823C319.139 127.102 314.085 132.255 310.041 139.282C306.286 146.075 303.542 152.165 301.809 157.552C301.809 158.021 301.376 159.66 300.509 162.471C299.643 165.282 298.776 168.327 297.909 171.606C297.043 174.885 296.176 177.93 295.31 180.741L294.443 184.606H243.752C245.485 178.048 247.218 171.372 248.951 164.579C250.973 157.786 252.995 151.111 255.017 144.552C256.75 138.696 256.75 133.66 255.017 129.444C253.572 125.228 250.973 122.183 247.218 120.309C243.463 118.435 238.986 117.85 233.787 118.552C228.588 119.021 223.244 121.129 217.756 124.877C212.846 128.156 208.802 132.255 205.625 137.174C202.736 142.093 200.137 147.363 197.826 152.985C195.804 158.372 194.071 163.876 192.627 169.498C191.471 175.12 190.316 180.156 189.161 184.606H161.865C158.11 184.606 154.211 184.957 150.167 185.66C146.123 186.129 142.368 187.066 138.902 188.471C135.436 189.876 132.548 191.867 130.237 194.444C128.215 196.786 127.204 199.831 127.204 203.579C127.204 206.624 127.926 209.201 129.37 211.309C131.103 213.182 133.27 214.705 135.869 215.876C138.758 216.813 141.791 217.516 144.968 217.984C148.434 218.218 151.756 218.336 154.933 218.336H179.196L161.865 278.416H143.235C136.591 278.182 130.381 278.065 124.605 278.065C118.25 278.299 113.773 280.29 111.173 284.038C108.863 287.551 107.707 291.533 107.707 295.984C107.707 300.2 109.296 303.479 112.473 305.821C115.65 307.93 119.55 309.452 124.171 310.389C128.793 311.326 133.559 311.794 138.469 311.794H151.9C151.034 315.074 150.023 318.47 148.867 321.984L146.268 331.821C145.401 335.101 144.101 338.731 142.368 342.713C140.924 346.461 139.769 350.326 138.902 354.308C138.036 358.29 137.891 362.154 138.469 365.902C139.047 369.65 141.069 372.929 144.535 375.74C149.734 379.956 155.511 381.713 161.865 381.01C168.508 380.307 174.43 378.434 179.629 375.389C185.406 372.344 189.449 368.244 191.76 363.091C194.36 357.704 196.382 352.434 197.826 347.281C199.559 341.191 201.148 335.218 202.592 329.362L207.791 311.794H259.349C258.483 315.776 257.472 319.993 256.316 324.443C255.161 328.659 254.006 332.758 252.85 336.74C251.695 340.019 250.539 343.416 249.384 346.929C248.518 350.209 247.795 353.605 247.218 357.118C246.64 360.632 246.929 364.028 248.084 367.308C249.529 370.587 251.695 373.398 254.583 375.74C257.472 378.082 260.793 379.839 264.548 381.01C268.592 382.181 272.925 382.533 277.546 382.064C283.323 381.362 287.8 379.839 290.977 377.497C294.443 375.154 297.187 372.344 299.209 369.064C301.231 365.785 302.675 362.272 303.542 358.524C304.408 354.542 305.419 350.56 306.575 346.578C306.864 345.875 307.441 343.65 308.308 339.902C309.174 336.155 310.041 332.29 310.907 328.308C312.063 324.092 313.074 320.344 313.94 317.065C314.807 313.551 315.529 311.794 316.107 311.794H333.437C340.369 311.794 346.868 311.443 352.934 310.74C358.999 309.803 364.199 308.164 368.531 305.821C372.864 303.479 375.03 299.849 375.03 294.93C375.319 290.245 374.019 286.38 371.131 283.335C368.531 280.29 364.199 278.651 358.133 278.416C351.49 277.948 345.568 277.831 340.369 278.065C335.459 278.299 331.271 278.416 327.805 278.416L340.802 218.336C351.778 218.336 360.588 218.218 367.231 217.984C374.164 217.75 378.207 217.399 379.363 216.93C383.407 216.462 386.439 215.173 388.461 213.065C390.483 210.723 391.783 208.264 392.361 205.687C392.938 202.876 392.794 200.183 391.927 197.606C391.35 195.029 390.483 193.038 389.328 191.633C387.884 190.228 385.428 189.056 381.962 188.12C378.785 187.183 375.175 186.48 371.131 186.011C367.376 185.309 363.621 184.957 359.866 184.957C356.111 184.723 352.934 184.606 350.334 184.606C351.778 178.516 353.223 172.309 354.667 165.985C356.4 159.66 357.989 153.453 359.433 147.363ZM269.314 278.416H216.889L233.787 218.336H285.778L269.314 278.416Z" fill="#D69E2E"/>
<path d="M225.207 15.6987L251.207 60.732L251.207 60.732L225.207 15.6987ZM275.207 15.6987L249.207 60.732L249.207 60.7321L275.207 15.6987ZM60 111.081L86 156.115L86 156.115L60 111.081ZM60 388.449L34 433.482L34 433.482L60 388.449ZM225.207 483.831L251.207 438.798L251.207 438.798L225.207 483.831ZM275.207 483.831L249.207 438.798L249.207 438.798L275.207 483.831ZM440.415 388.449L414.415 343.415L414.415 343.415L440.415 388.449ZM440.415 111.081L414.415 156.115L414.415 156.115L440.415 111.081ZM359.433 134.363L310.815 152.81L312.245 156.58L314.24 160.084L359.433 134.363ZM359.433 147.363L309.74 132.044L309.233 133.689L308.836 135.364L359.433 147.363ZM353.8 126.633L321.047 167.022L321.047 167.022L353.8 126.633ZM344.702 122.417L329.994 172.294L332.158 172.932L334.37 173.381L344.702 122.417ZM325.205 123.823L302.454 77.0639L301.454 77.5506L300.475 78.0796L325.205 123.823ZM310.041 139.282L264.971 113.346L264.748 113.733L264.531 114.125L310.041 139.282ZM301.809 157.552L252.307 141.628L249.809 149.394V157.552H301.809ZM297.909 171.606L247.635 158.322L247.635 158.322L297.909 171.606ZM295.31 180.741L245.618 165.422L245.016 167.373L244.57 169.365L295.31 180.741ZM294.443 184.606V236.606H336.075L345.184 195.983L294.443 184.606ZM243.752 184.606L193.477 171.321L176.226 236.606H243.752V184.606ZM248.951 164.579L199.112 149.744L198.819 150.729L198.565 151.724L248.951 164.579ZM255.017 144.552L304.709 159.872L304.795 159.591L304.879 159.309L255.017 144.552ZM255.017 129.444L205.823 146.295L206.328 147.771L206.921 149.214L255.017 129.444ZM247.218 120.309L223.998 166.837L223.999 166.837L247.218 120.309ZM233.787 118.552L238.453 170.343L239.605 170.239L240.751 170.084L233.787 118.552ZM217.756 124.877L246.635 168.12L246.859 167.971L247.081 167.819L217.756 124.877ZM205.625 137.174L161.944 108.96L161.344 109.889L160.784 110.843L205.625 137.174ZM197.826 152.985L149.73 133.215L149.424 133.96L149.142 134.713L197.826 152.985ZM192.627 169.498L142.262 156.559L141.947 157.787L141.691 159.03L192.627 169.498ZM189.161 184.606V236.606H229.385L239.492 197.673L189.161 184.606ZM150.167 185.66L156.151 237.315L157.616 237.145L159.07 236.892L150.167 185.66ZM138.902 188.471L158.441 236.66L158.442 236.66L138.902 188.471ZM130.237 194.444L91.5247 159.726L91.1957 160.092L90.8736 160.465L130.237 194.444ZM129.37 211.309L86.4718 240.697L88.6172 243.829L91.1946 246.616L129.37 211.309ZM135.869 215.876L114.51 263.287L117.111 264.459L119.825 265.339L135.869 215.876ZM144.968 217.984L137.383 269.428L139.414 269.727L141.462 269.866L144.968 217.984ZM179.196 218.336L229.159 232.748L248.315 166.336H179.196V218.336ZM161.865 278.416V330.416H200.986L211.828 292.828L161.865 278.416ZM143.235 278.416L141.403 330.384L142.318 330.416H143.235V278.416ZM124.605 278.065V226.065H123.647L122.689 226.1L124.605 278.065ZM111.173 284.038L68.446 254.401L68.0801 254.928L67.7274 255.464L111.173 284.038ZM112.473 305.821L81.6168 347.677L82.6522 348.44L83.724 349.151L112.473 305.821ZM124.171 310.389L134.503 259.426L134.503 259.426L124.171 310.389ZM151.9 311.794L202.174 325.079L219.426 259.794H151.9V311.794ZM148.867 321.984L99.4695 305.74L98.9872 307.206L98.5928 308.699L148.867 321.984ZM146.268 331.821L196.542 345.106L196.542 345.106L146.268 331.821ZM142.368 342.713L94.6884 321.962L94.2455 322.979L93.8464 324.015L142.368 342.713ZM138.469 365.902L87.0759 373.824L87.0759 373.824L138.469 365.902ZM144.535 375.74L111.782 416.129L111.782 416.129L144.535 375.74ZM161.865 381.01L156.395 329.299L156.272 329.312L156.15 329.325L161.865 381.01ZM179.629 375.389L155.381 329.388L154.353 329.93L153.349 330.518L179.629 375.389ZM191.76 363.091L144.927 340.493L144.61 341.15L144.312 341.815L191.76 363.091ZM197.826 347.281L147.812 333.048L147.783 333.148L147.755 333.248L197.826 347.281ZM202.592 329.362L152.73 314.605L152.391 315.75L152.105 316.91L202.592 329.362ZM207.791 311.794V259.794H168.951L157.929 297.038L207.791 311.794ZM259.349 311.794L310.16 322.852L323.882 259.794H259.349V311.794ZM256.316 324.443L306.467 338.186L306.56 337.848L306.648 337.509L256.316 324.443ZM252.85 336.74L301.895 354.02L302.382 352.638L302.791 351.23L252.85 336.74ZM249.384 346.929L199.986 330.686L199.504 332.152L199.11 333.645L249.384 346.929ZM248.084 367.308L199.039 384.587L199.697 386.454L200.495 388.266L248.084 367.308ZM254.583 375.74L287.336 335.351L287.336 335.351L254.583 375.74ZM264.548 381.01L249.065 430.652L249.572 430.81L250.083 430.958L264.548 381.01ZM277.546 382.064L282.79 433.799L283.308 433.747L283.825 433.684L277.546 382.064ZM290.977 377.497L261.861 334.412L260.979 335.009L260.121 335.641L290.977 377.497ZM299.209 369.064L343.472 396.356L343.472 396.355L299.209 369.064ZM303.542 358.524L354.205 370.238L354.281 369.91L354.353 369.581L303.542 358.524ZM306.575 346.578L258.48 326.808L257.415 329.398L256.634 332.088L306.575 346.578ZM308.308 339.902L358.971 351.617L358.971 351.616L308.308 339.902ZM310.907 328.308L260.756 314.565L260.391 315.899L260.097 317.25L310.907 328.308ZM313.94 317.065L364.215 330.349L364.324 329.934L364.427 329.517L313.94 317.065ZM352.934 310.74L358.918 362.395L359.897 362.281L360.872 362.131L352.934 310.74ZM368.531 305.821L343.801 260.078L343.801 260.078L368.531 305.821ZM375.03 294.93L323.129 291.729L323.03 293.328V294.93H375.03ZM371.131 283.335L331.583 317.098L332.467 318.134L333.404 319.122L371.131 283.335ZM358.133 278.416L354.475 330.287L355.3 330.346L356.126 330.378L358.133 278.416ZM340.369 278.065L338.029 226.118L337.96 226.121L337.892 226.124L340.369 278.065ZM327.805 278.416L276.98 267.421L263.352 330.416H327.805V278.416ZM340.802 218.336V166.336H298.849L289.978 207.34L340.802 218.336ZM367.231 217.984L365.475 166.014L365.437 166.015L365.399 166.017L367.231 217.984ZM379.363 216.93L373.379 165.276L366.366 166.088L359.824 168.741L379.363 216.93ZM388.461 213.065L425.99 249.06L426.934 248.076L427.825 247.044L388.461 213.065ZM392.361 205.687L443.101 217.064L443.203 216.611L443.296 216.156L392.361 205.687ZM391.927 197.606L341.187 208.982L341.778 211.62L342.64 214.182L391.927 197.606ZM389.328 191.633L429.496 158.61L427.663 156.38L425.594 154.367L389.328 191.633ZM381.962 188.12L367.254 237.996L367.822 238.164L368.393 238.318L381.962 188.12ZM371.131 186.011L361.566 237.124L363.347 237.457L365.147 237.666L371.131 186.011ZM359.866 184.957L356.628 236.857L358.246 236.957H359.866V184.957ZM350.334 184.606L299.737 172.608L284.561 236.606H350.334V184.606ZM354.667 165.985L304.516 152.242L304.221 153.319L303.972 154.408L354.667 165.985ZM216.889 278.416L166.831 264.338L148.247 330.416H216.889V278.416ZM269.314 278.416V330.416H308.982L319.465 292.159L269.314 278.416ZM233.787 218.336V166.336H194.394L183.729 204.257L233.787 218.336ZM285.778 218.336L335.929 232.079L353.945 166.336H285.778V218.336ZM251.207 60.732C250.589 61.0893 249.826 61.0893 249.207 60.732L301.207 -29.3346C269.648 -47.5551 230.766 -47.5551 199.207 -29.3346L251.207 60.732ZM86 156.115L251.207 60.732L199.207 -29.3346L34 66.0479L86 156.115ZM87 154.382C87 155.097 86.6188 155.757 86 156.115L34 66.0479C2.4411 84.2684 -17 117.941 -17 154.382H87ZM87 345.147V154.382H-17V345.147H87ZM86 343.415C86.6188 343.773 87 344.433 87 345.147H-17C-17 381.589 2.44106 415.261 34 433.482L86 343.415ZM251.207 438.798L86 343.415L34 433.482L199.207 528.865L251.207 438.798ZM249.207 438.798C249.826 438.441 250.589 438.441 251.207 438.798L199.207 528.865C230.766 547.085 269.648 547.085 301.207 528.865L249.207 438.798ZM414.415 343.415L249.207 438.798L301.207 528.865L466.415 433.482L414.415 343.415ZM413.415 345.147C413.415 344.433 413.796 343.773 414.415 343.415L466.415 433.482C497.974 415.262 517.415 381.589 517.415 345.147H413.415ZM413.415 154.382V345.147H517.415V154.382H413.415ZM414.415 156.115C413.796 155.757 413.415 155.097 413.415 154.382H517.415C517.415 117.941 497.974 84.2684 466.415 66.0479L414.415 156.115ZM249.207 60.7321L414.415 156.115L466.415 66.0479L301.207 -29.3346L249.207 60.7321ZM314.24 160.084C309.704 152.115 308.733 144.634 308.733 139.897C308.733 135.391 309.585 132.549 309.74 132.044L409.125 162.682C412.355 152.206 417.015 130.411 404.626 108.642L314.24 160.084ZM321.047 167.022C316.72 163.513 313.01 158.597 310.815 152.81L408.051 115.916C403.544 104.039 396.079 93.9699 386.553 86.2447L321.047 167.022ZM334.37 173.381C330.099 172.515 325.33 170.495 321.047 167.022L386.553 86.2448C377.072 78.5558 366.237 73.7253 355.034 71.4541L334.37 173.381ZM338.243 173.245C335.87 173.405 333.006 173.182 329.994 172.294L359.41 72.5407C350.043 69.7787 340.536 68.8527 331.231 69.4816L338.243 173.245ZM347.956 170.581C344.344 172.339 340.913 173.064 338.243 173.245L331.231 69.4816C321.628 70.1305 311.843 72.4954 302.454 77.0639L347.956 170.581ZM355.111 165.218C355.203 165.059 354.893 165.637 353.987 166.56C353.045 167.521 351.687 168.619 349.935 169.566L300.475 78.0796C284.529 86.7004 272.969 99.4471 264.971 113.346L355.111 165.218ZM351.311 173.476C351.715 172.219 352.868 169.291 355.55 164.439L264.531 114.125C259.703 122.859 255.369 132.111 252.307 141.628L351.311 173.476ZM350.201 177.79C350.716 176.122 351.278 174.237 351.758 172.418C351.99 171.539 352.338 170.175 352.663 168.591C352.754 168.149 353.809 163.424 353.809 157.552H249.809C249.809 155.669 249.913 154.125 250.004 153.091C250.099 152.015 250.213 151.116 250.307 150.458C250.489 149.178 250.682 148.189 250.792 147.655C251.009 146.598 251.194 145.907 251.209 145.849C251.257 145.669 251.169 146.01 250.817 147.152L350.201 177.79ZM348.184 184.891C348.897 182.193 349.571 179.835 350.201 177.79L250.817 147.152C249.714 150.729 248.655 154.46 247.635 158.322L348.184 184.891ZM345.002 196.06C346.105 192.483 347.164 188.752 348.184 184.891L247.635 158.322C246.922 161.019 246.248 163.378 245.618 165.422L345.002 196.06ZM345.184 195.983L346.05 192.118L244.57 169.365L243.703 173.229L345.184 195.983ZM243.752 236.606H294.443V132.606H243.752V236.606ZM198.565 151.724C196.867 158.378 195.171 164.91 193.477 171.321L294.026 197.891C295.798 191.185 297.568 184.366 299.337 177.434L198.565 151.724ZM205.324 129.233C203.251 135.958 201.18 142.795 199.112 149.744L298.79 179.414C300.765 172.778 302.738 166.264 304.709 159.872L205.324 129.233ZM206.921 149.214C202.82 139.237 204.665 131.449 205.154 129.795L304.879 159.309C308.834 145.944 310.679 128.084 303.112 109.675L206.921 149.214ZM223.999 166.837C219.938 164.811 215.884 161.801 212.435 157.761C209.029 153.771 206.983 149.682 205.823 146.295L304.21 112.593C298.645 96.3442 287.225 82.1588 270.437 73.781L223.999 166.837ZM240.751 170.084C238.211 170.427 231.672 170.667 223.998 166.837L270.437 73.7812C255.254 66.2039 239.761 65.2722 226.822 67.021L240.751 170.084ZM247.081 167.819C247.199 167.738 244.19 169.826 238.453 170.343L229.12 66.7623C212.985 68.2161 199.289 74.5198 188.431 81.9344L247.081 167.819ZM249.305 165.388C248.996 165.867 248.578 166.403 248.059 166.929C247.54 167.455 247.039 167.85 246.635 168.12L188.877 81.6333C178.108 88.8247 169.01 98.0216 161.944 108.96L249.305 165.388ZM245.921 172.754C247.363 169.247 248.892 166.184 250.465 163.505L160.784 110.843C156.58 118.002 152.91 125.479 149.73 133.215L245.921 172.754ZM242.991 182.437C243.975 178.606 245.149 174.882 246.51 171.256L149.142 134.713C146.459 141.862 144.166 149.147 142.262 156.559L242.991 182.437ZM239.492 197.673C240.918 192.182 242.269 186.256 243.562 179.966L141.691 159.03C140.673 163.983 139.714 168.13 138.829 171.539L239.492 197.673ZM161.865 236.606H189.161V132.606H161.865V236.606ZM159.07 236.892C160.442 236.654 161.355 236.606 161.865 236.606V132.606C154.865 132.606 147.979 133.261 141.264 134.428L159.07 236.892ZM158.442 236.66C157.201 237.163 156.353 237.291 156.151 237.315L144.183 134.006C135.893 134.966 127.535 136.968 119.363 140.282L158.442 236.66ZM168.949 229.162C165.559 232.942 161.705 235.337 158.441 236.66L119.363 140.281C109.167 144.416 99.536 150.793 91.5247 159.726L168.949 229.162ZM179.204 203.579C179.204 209.555 177.364 219.428 169.6 228.422L90.8736 160.465C79.0662 174.144 75.2041 190.107 75.2041 203.579H179.204ZM172.269 181.92C177.815 190.016 179.204 198.184 179.204 203.579H75.2041C75.2041 215.063 78.0371 228.385 86.4718 240.697L172.269 181.92ZM157.229 168.465C160.245 169.824 164.018 172.186 167.546 176.001L91.1946 246.616C98.1894 254.179 106.295 259.586 114.51 263.287L157.229 168.465ZM152.553 166.54C152.082 166.471 151.889 166.405 151.914 166.413L119.825 265.339C125.626 267.221 131.499 268.561 137.383 269.428L152.553 166.54ZM154.933 166.336C153.027 166.336 150.88 166.265 148.474 166.103L141.462 269.866C145.988 270.172 150.484 270.336 154.933 270.336V166.336ZM179.196 166.336H154.933V270.336H179.196V166.336ZM211.828 292.828L229.159 232.748L129.233 203.924L111.902 264.004L211.828 292.828ZM143.235 330.416H161.865V226.416H143.235V330.416ZM124.605 330.065C129.688 330.065 135.281 330.168 141.403 330.384L145.067 226.449C137.902 226.196 131.075 226.065 124.605 226.065V330.065ZM153.901 313.675C149.37 320.207 143.401 324.672 137.611 327.247C132.277 329.619 128.092 329.972 126.52 330.03L122.689 226.1C106.854 226.684 83.7042 232.403 68.446 254.401L153.901 313.675ZM159.707 295.984C159.707 301.066 158.221 307.134 154.619 312.611L67.7274 255.464C59.5039 267.968 55.7073 282 55.7073 295.984H159.707ZM143.33 263.966C147.953 267.375 152.511 272.358 155.696 278.934C158.825 285.393 159.707 291.471 159.707 295.984H55.7073C55.7073 315.405 64.1209 334.779 81.6168 347.677L143.33 263.966ZM134.503 259.426C134.949 259.516 137.658 260.127 141.222 262.492L83.724 349.151C93.6425 355.732 104.15 359.388 113.839 361.352L134.503 259.426ZM138.469 259.794C136.885 259.794 135.587 259.645 134.503 259.426L113.839 361.352C121.999 363.006 130.232 363.794 138.469 363.794V259.794ZM151.9 259.794H138.469V363.794H151.9V259.794ZM198.265 338.227C199.713 333.823 201.023 329.438 202.174 325.079L101.626 298.51C101.044 300.71 100.332 303.117 99.4695 305.74L198.265 338.227ZM196.542 345.106L199.142 335.268L98.5928 308.699L95.9932 318.537L196.542 345.106ZM190.048 363.465C192.558 357.697 194.845 351.528 196.542 345.106L95.9933 318.537C95.9571 318.673 95.6444 319.765 94.6884 321.962L190.048 363.465ZM189.713 365.365C190.022 363.947 190.417 362.638 190.89 361.411L93.8464 324.015C91.4308 330.283 89.5158 336.705 88.0914 343.251L189.713 365.365ZM189.862 357.98C190.327 360.998 190.102 363.579 189.713 365.365L88.0914 343.251C85.9696 353.001 85.4553 363.31 87.0759 373.824L189.862 357.98ZM177.287 335.351C179.394 337.06 182.177 339.819 184.681 343.881C187.258 348.06 189.075 352.875 189.862 357.98L87.0759 373.824C89.9609 392.541 100.169 406.711 111.782 416.129L177.287 335.351ZM156.15 329.325C159.561 328.948 163.647 329.177 167.896 330.469C172.094 331.746 175.239 333.69 177.287 335.351L111.782 416.129C127.212 428.641 146.7 435.004 167.581 432.695L156.15 329.325ZM153.349 330.518C154.195 330.023 154.979 329.697 155.599 329.501C156.205 329.309 156.507 329.287 156.395 329.299L167.335 432.722C180.518 431.327 193.675 427.424 205.909 420.259L153.349 330.518ZM144.312 341.815C145.746 338.617 147.727 335.792 149.976 333.512C152.164 331.294 154.174 330.024 155.381 329.388L203.876 421.389C218.252 413.812 231.421 401.735 239.208 384.368L144.312 341.815ZM147.755 333.248C147.226 335.136 146.351 337.543 144.927 340.493L238.593 385.69C242.369 377.865 245.537 369.732 247.897 361.314L147.755 333.248ZM152.105 316.91C150.815 322.141 149.385 327.52 147.812 333.048L247.84 361.513C249.733 354.861 251.481 348.294 253.079 341.814L152.105 316.91ZM157.929 297.038L152.73 314.605L252.454 344.119L257.653 326.551L157.929 297.038ZM259.349 259.794H207.791V363.794H259.349V259.794ZM306.648 337.509C307.955 332.475 309.13 327.585 310.16 322.852L208.538 300.737C207.835 303.968 206.989 307.51 205.985 311.377L306.648 337.509ZM302.791 351.23C304.022 346.987 305.247 342.638 306.467 338.186L206.165 310.7C205.075 314.68 203.989 318.53 202.91 322.25L302.791 351.23ZM298.782 363.173C299.83 359.984 300.868 356.934 301.895 354.02L203.805 319.46C202.521 323.105 201.249 326.847 199.986 330.686L298.782 363.173ZM298.529 365.555C298.851 363.593 299.235 361.818 299.659 360.214L199.11 333.645C197.8 338.599 196.739 343.617 195.907 348.682L298.529 365.555ZM297.129 350.028C298.951 355.199 299.334 360.659 298.529 365.555L195.907 348.682C193.946 360.605 194.907 372.858 199.039 384.587L297.129 350.028ZM287.336 335.351C290.616 338.011 293.659 341.774 295.674 346.349L200.495 388.266C205.398 399.4 212.774 408.784 221.831 416.129L287.336 335.351ZM280.032 331.369C282.2 332.045 284.815 333.307 287.336 335.351L221.83 416.129C230.128 422.857 239.387 427.633 249.065 430.652L280.032 331.369ZM272.302 330.329C273.619 330.196 276.032 330.199 279.014 331.063L250.083 430.958C261.152 434.163 272.231 434.869 282.79 433.799L272.302 330.329ZM260.121 335.641C263.583 333.089 266.646 331.793 268.495 331.164C270.323 330.542 271.375 330.432 271.267 330.445L283.825 433.684C294.574 432.376 308.816 428.949 321.834 419.352L260.121 335.641ZM254.947 341.773C257.119 338.249 259.747 335.841 261.861 334.412L320.093 420.581C329.14 414.467 337.255 406.438 343.472 396.356L254.947 341.773ZM252.878 346.81C253.287 345.043 254.007 343.297 254.946 341.773L343.472 396.355C348.455 388.274 352.064 379.5 354.205 370.238L252.878 346.81ZM256.634 332.088C255.156 337.184 253.853 342.311 252.731 347.467L354.353 369.581C354.964 366.773 355.683 363.936 356.515 361.068L256.634 332.088ZM257.644 328.188C257.458 328.996 257.3 329.664 257.169 330.207C257.035 330.758 256.945 331.116 256.893 331.316C256.868 331.411 256.861 331.436 256.87 331.402C256.878 331.374 256.917 331.234 256.983 331.009C257.045 330.802 257.173 330.374 257.364 329.801C257.463 329.507 257.597 329.113 257.767 328.647C257.932 328.192 258.17 327.56 258.48 326.808L354.67 366.348C356.388 362.167 357.423 357.96 357.556 357.449C358.013 355.689 358.493 353.686 358.971 351.617L257.644 328.188ZM260.097 317.25C259.275 321.026 258.457 324.672 257.644 328.189L358.971 351.616C359.891 347.638 360.807 343.554 361.718 339.365L260.097 317.25ZM263.666 303.78C262.849 306.87 261.881 310.46 260.756 314.565L361.058 342.051C362.244 337.723 363.298 333.818 364.215 330.349L263.666 303.78ZM316.107 259.794C289.379 259.794 275.634 278.776 273.844 281.195C269.929 286.487 267.838 291.392 267.036 293.343C265.182 297.853 264.057 302.165 263.453 304.613L364.427 329.517C364.69 328.451 364.359 330.128 363.227 332.881C362.786 333.954 361.038 338.2 357.448 343.052C355.612 345.534 351.978 349.99 346.143 354.166C340.084 358.501 329.783 363.794 316.107 363.794V259.794ZM333.437 259.794H316.107V363.794H333.437V259.794ZM346.95 259.086C343.115 259.53 338.632 259.794 333.437 259.794V363.794C342.107 363.794 350.622 363.356 358.918 362.395L346.95 259.086ZM343.801 260.078C344.825 259.525 345.526 259.284 345.743 259.216C345.952 259.15 345.739 259.235 344.996 259.35L360.872 362.131C371.427 360.5 382.587 357.335 393.261 351.565L343.801 260.078ZM323.03 294.93C323.03 289.562 324.288 282.176 328.75 274.697C333.211 267.222 339.104 262.618 343.801 260.078L393.261 351.565C402.291 346.683 411.434 339.092 418.06 327.986C424.689 316.877 427.03 305.216 427.03 294.93H323.03ZM333.404 319.122C329.8 315.323 326.817 310.542 324.985 305.093C323.197 299.778 322.922 295.084 323.129 291.729L426.932 298.13C427.992 280.93 422.903 262.355 408.858 247.549L333.404 319.122ZM356.126 330.378C355.147 330.34 342.355 329.717 331.583 317.098L410.679 249.572C394.707 230.864 373.251 226.961 360.14 226.455L356.126 330.378ZM342.709 330.012C345.448 329.889 349.307 329.923 354.475 330.287L361.791 226.545C353.672 225.973 345.689 225.773 338.029 226.118L342.709 330.012ZM327.805 330.416C332.358 330.416 337.422 330.265 342.847 330.006L337.892 226.124C333.496 226.334 330.183 226.416 327.805 226.416V330.416ZM289.978 207.34L276.98 267.421L378.629 289.412L391.627 229.331L289.978 207.34ZM365.399 166.017C359.629 166.22 351.505 166.336 340.802 166.336V270.336C352.052 270.336 361.547 270.217 369.064 269.952L365.399 166.017ZM359.824 168.741C361.608 168.017 363.125 167.522 364.203 167.2C365.311 166.868 366.25 166.631 366.95 166.467C368.307 166.15 369.342 165.975 369.855 165.894C370.855 165.737 371.338 165.708 370.962 165.74C370.27 165.8 368.568 165.909 365.475 166.014L368.988 269.955C372.827 269.825 376.614 269.641 379.965 269.35C381.611 269.207 383.755 268.987 386.054 268.625C387.295 268.429 392.755 267.612 398.902 265.12L359.824 168.741ZM350.933 177.071C360.05 167.565 370.086 165.657 373.379 165.276L385.347 268.585C396.727 267.266 412.829 262.782 425.99 249.06L350.933 177.071ZM341.62 194.31C343.214 187.202 346.488 182.111 349.098 179.087L427.825 247.044C434.479 239.335 440.352 229.325 443.101 217.064L341.62 194.31ZM342.64 214.182C340.412 207.558 340.26 200.89 341.425 195.218L443.296 216.156C445.617 204.863 445.176 192.807 441.215 181.03L342.64 214.182ZM349.16 224.656C343.345 217.583 341.644 211.022 341.187 208.982L442.668 186.23C441.055 179.037 437.622 168.494 429.496 158.61L349.16 224.656ZM368.393 238.318C367.993 238.21 366.355 237.75 364.015 236.634C361.792 235.574 357.551 233.268 353.062 228.899L425.594 154.367C414.598 143.666 401.805 139.617 395.532 137.921L368.393 238.318ZM365.147 237.666C366.878 237.867 367.488 238.065 367.254 237.996L396.67 138.243C390.083 136.3 383.471 135.093 377.115 134.357L365.147 237.666ZM359.866 236.957C360.357 236.957 360.91 237.001 361.566 237.124L380.696 134.899C373.842 133.616 366.885 132.957 359.866 132.957V236.957ZM350.334 236.606C351.495 236.606 353.521 236.663 356.628 236.857L363.104 133.058C358.701 132.784 354.373 132.606 350.334 132.606V236.606ZM303.972 154.408C302.559 160.596 301.147 166.663 299.737 172.608L400.931 196.605C402.41 190.369 403.887 184.021 405.362 177.561L303.972 154.408ZM308.836 135.364C307.537 140.844 306.098 146.469 304.516 152.242L404.818 179.728C406.702 172.852 408.44 166.062 410.029 159.362L308.836 135.364ZM216.889 330.416H269.314V226.416H216.889V330.416ZM183.729 204.257L166.831 264.338L266.947 292.495L283.845 232.414L183.729 204.257ZM285.778 166.336H233.787V270.336H285.778V166.336ZM319.465 292.159L335.929 232.079L235.627 204.593L219.163 264.673L319.465 292.159Z" fill="#D69E2E" mask="url(#path-1-inside-1_7_9)"/>
</svg>
